# xmcd
# 
# Track frame offsets:
#     225
#     16287
#     50626
#     70366
# 
# Disc length: 1214
# 
# Revision: 0
# Processed by: cddbd v1.5.2PL0 Copyright (c) Steve Scherf et al.
# Submitted via: BonkEnc v1.0.5
# 
DISCID=3304bb04
DTITLE=Carbon/Silicon - The Magic Suitcase
DYEAR=2007
DGENRE=Alt. Rock
TTITLE0=The Magic Suitcase
TTITLE1=Acton Zulus
TTITLE2=Soylent Green
TTITLE3=Third World War Poetry
EXTD=
EXTT0=
EXTT1=
EXTT2=
EXTT3=
PLAYORDER=
